<?xml version="1.0" encoding="UTF-8"?>
<svg width="800px" height="800px" viewBox="0 0 800 800" version="1.1" xmlns="http://www.w3.org/2000/svg">
    <title>Saudi Arabia Map Outline</title>
    <g stroke="none" stroke-width="1" fill="none" fill-rule="evenodd">
        <path d="M600,100 C612.5,100 625,110 637.5,120 C650,130 662.5,140 675,145 C687.5,150 700,155 712.5,165 C725,175 737.5,190 750,200 C762.5,210 775,220 775,230 C775,240 762.5,250 750,260 C737.5,270 725,280 712.5,290 C700,300 687.5,310 675,325 C662.5,340 650,360 637.5,380 C625,400 612.5,420 600,440 C587.5,460 575,480 562.5,495 C550,510 537.5,520 525,530 C512.5,540 500,550 487.5,565 C475,580 462.5,600 450,615 C437.5,630 425,640 412.5,650 C400,660 387.5,670 375,680 C362.5,690 350,700 337.5,705 C325,710 312.5,710 300,710 C287.5,710 275,710 262.5,705 C250,700 237.5,690 225,680 C212.5,670 200,660 187.5,645 C175,630 162.5,610 150,590 C137.5,570 125,550 112.5,530 C100,510 87.5,490 75,470 C62.5,450 50,430 50,410 C50,390 62.5,370 75,350 C87.5,330 100,310 112.5,300 C125,290 137.5,290 150,290 C162.5,290 175,290 187.5,280 C200,270 212.5,250 225,240 C237.5,230 250,230 262.5,225 C275,220 287.5,210 300,200 C312.5,190 325,180 337.5,170 C350,160 362.5,150 375,145 C387.5,140 400,140 412.5,140 C425,140 437.5,140 450,135 C462.5,130 475,120 487.5,115 C500,110 512.5,110 525,110 C537.5,110 550,110 562.5,110 C575,110 587.5,110 600,100 Z" id="SaudiArabia-outline" stroke="#C68B48" stroke-width="2" fill-opacity="0.05" fill="#C68B48"></path>
    </g>
</svg>
